# xmcd
#
# Track frame offsets:
#	150
#	4283
#	21671
#	38979
#	57049
#	74418
#	88098
#	95742
#	114147
#
# Disc length: 1750 seconds
#
# Revision: 1
# Processed by: cddbd v1.5.1PL0 Copyright (c) Steve Scherf et al.
# Submitted via: CDex 1.50Beta5
#
DISCID=7606d409
DTITLE=GLAY - GLAY rare collectives vol.2 Disc 2
DYEAR=2003
DGENRE=Rock
TTITLE0=GLAY/17bars
TTITLE1=GLAY/Cynical
TTITLE2=GLAY/neuromancer
TTITLE3=GLAY/アイ
TTITLE4=GLAY/Surf Rider
TTITLE5=GLAY/GIANT STRONG FAUST SUPER STAR
TTITLE6=GLAY/17ans
TTITLE7=GLAY/I’m yours(knightmare mix’99)
TTITLE8=GALAY/道産子シーサー
EXTD=
EXTT0=
EXTT1=
EXTT2=
EXTT3=
EXTT4=
EXTT5=
EXTT6=
EXTT7=
EXTT8=
PLAYORDER=
